<svg width="157" height="194" viewBox="0 0 157 194" fill="none" xmlns="http://www.w3.org/2000/svg">
<path d="M133.463 119.992C111.87 144.702 88.2897 167.428 65.5202 190.988" stroke="#8EE9FF" stroke-width="5" stroke-miterlimit="1.5" stroke-linecap="round" stroke-linejoin="round"/>
<path d="M149.967 103.005C148.259 104.465 146.579 105.951 144.933 107.481" stroke="#8EE9FF" stroke-width="5" stroke-miterlimit="1.5" stroke-linecap="round" stroke-linejoin="round"/>
<path d="M39.0528 181.27C71.7778 153.399 101.242 120.658 130.331 89.0658" stroke="#8EE9FF" stroke-width="5" stroke-miterlimit="1.5" stroke-linecap="round" stroke-linejoin="round"/>
<path d="M154.13 60.2684C151.395 63.5213 148.501 66.559 145.61 69.6638" stroke="#8EE9FF" stroke-width="5" stroke-miterlimit="1.5" stroke-linecap="round" stroke-linejoin="round"/>
<path d="M96.666 91.7451C89.1218 98.9552 82.5871 107.167 75.3684 114.686C62.4115 128.182 48.5466 140.645 34.8727 153.386" stroke="#8EE9FF" stroke-width="5" stroke-miterlimit="1.5" stroke-linecap="round" stroke-linejoin="round"/>
<path d="M107.73 80.342C111.392 76.3263 114.97 72.2085 118.418 68.0032" stroke="#8EE9FF" stroke-width="5" stroke-miterlimit="1.5" stroke-linecap="round" stroke-linejoin="round"/>
<path d="M48.5248 109.411C58.6938 98.612 69.3004 88.2561 79.5255 77.5241" stroke="#8EE9FF" stroke-width="5" stroke-miterlimit="1.5" stroke-linecap="round" stroke-linejoin="round"/>
<path d="M92.2444 64.5427C95.0781 61.3223 97.9441 58.117 100.716 54.8421" stroke="#8EE9FF" stroke-width="5" stroke-miterlimit="1.5" stroke-linecap="round" stroke-linejoin="round"/>
<path d="M3.0548 123.372C22.1537 106.498 39.4015 87.6974 58.3005 70.6735" stroke="#8EE9FF" stroke-width="5" stroke-miterlimit="1.5" stroke-linecap="round" stroke-linejoin="round"/>
<path d="M67.0255 62.0341C68.4827 60.6178 69.9678 59.2212 71.3735 57.7531" stroke="#8EE9FF" stroke-width="5" stroke-miterlimit="1.5" stroke-linecap="round" stroke-linejoin="round"/>
<path d="M73.1324 22.2935C57.9518 42.3776 39.5401 61.6594 21.1186 78.7957" stroke="#8EE9FF" stroke-width="5" stroke-miterlimit="1.5" stroke-linecap="round" stroke-linejoin="round"/>
<path d="M87.5386 2.99993C86.0964 4.82619 84.5923 6.58473 83.0294 8.30755" stroke="#8EE9FF" stroke-width="5" stroke-miterlimit="1.5" stroke-linecap="round" stroke-linejoin="round"/>
</svg>
