<svg width="149" height="103" viewBox="0 0 149 103" fill="none" xmlns="http://www.w3.org/2000/svg">
<path d="M176.735 100.152C176.104 92.8719 176.857 85.3878 176.563 78.0816C176.086 66.2383 174.506 54.4345 174.241 42.5846C167.772 48.4773 162.049 55.227 155.475 61.0023C148.052 67.5239 139.596 73.8596 133.301 81.5099C132.101 63.9137 130.933 46.3069 129.835 28.7015C116.429 40.3879 102.446 52.6321 90.1391 65.4037L84.1465 13.0923C68.8941 23.9005 55.5711 37.5516 40.2149 48.3929C39.9036 33.3889 38.1712 17.9011 38.6152 3C26.1432 12.3011 14.3411 24.4003 3 35.0253" stroke="#8EE9FF" stroke-width="5" stroke-miterlimit="1.5" stroke-linecap="round" stroke-linejoin="round"/>
</svg>
