<svg width="134" height="133" viewBox="0 0 134 133" fill="none" xmlns="http://www.w3.org/2000/svg">
<path d="M29.1621 99.5918C36.9435 103.83 44.5244 108.553 52.2889 112.874" stroke="#8EE9FF" stroke-width="5" stroke-miterlimit="1.5" stroke-linecap="round" stroke-linejoin="round"/>
<path d="M73.2327 109.626C67.7604 106.954 62.3911 102.574 57.2819 99.254C45.7612 91.7685 33.2406 85.6601 21.1538 79.1861" stroke="#8EE9FF" stroke-width="5" stroke-miterlimit="1.5" stroke-linecap="round" stroke-linejoin="round"/>
<path d="M16.1338 56.9727C26.1784 62.4501 36.9084 66.5556 47.0996 71.7456C65.5985 81.1664 84.6541 92.3984 101.954 103.91" stroke="#8EE9FF" stroke-width="5" stroke-miterlimit="1.5" stroke-linecap="round" stroke-linejoin="round"/>
<path d="M36.71 48.9395C53.6765 57.9625 70.7993 66.5831 87.4803 76.1743" stroke="#8EE9FF" stroke-width="5" stroke-miterlimit="1.5" stroke-linecap="round" stroke-linejoin="round"/>
<path d="M58.3047 43.3711C66.9616 48.1009 75.9435 52.255 84.6429 56.9222" stroke="#8EE9FF" stroke-width="5" stroke-miterlimit="1.5" stroke-linecap="round" stroke-linejoin="round"/>
<path d="M55.9732 24.4382C70.9594 33.2648 86.69 40.6512 101.875 49.0909" stroke="#8EE9FF" stroke-width="5" stroke-miterlimit="1.5" stroke-linecap="round" stroke-linejoin="round"/>
<path d="M71.4521 16.4746C81.3133 21.7225 91.5038 26.6596 101.61 31.4422" stroke="#8EE9FF" stroke-width="5" stroke-miterlimit="1.5" stroke-linecap="round" stroke-linejoin="round"/>
</svg>
